{"title":"Charlie_Rose_Bashar_Al_Assad_09_13","uid":8904320,"size":159626410,"categoryP":"video","categoryS":"tv_shows","magnet":"?xt=urn:btih:8fd13af760e5c73e95e6dc47de489fbc72a8eca8&amp;dn=Charlie_Rose_Bashar_Al_Assad_09_13&amp;tr=udp%3A%2F%2Ftracker.openbittorrent.com%3A80&amp;tr=udp%3A%2F%2Fopen.demonii.com%3A1337&amp;tr=udp%3A%2F%2Ftracker.coppersurfer.tk%3A6969&amp;tr=udp%3A%2F%2Fexodus.desync.com%3A6969","seeders":1,"leechers":0,"uploader":"billydoll","files":2,"time":1378873708,"description":"  WebM Format, you can play it with VLC Media Player or open\nit in your browser even. Check out what a creep and liar \nCharlie Rose is.\n\nGeneral\n\nComplete name                            : Charlie_Rose_Bashar_Al-Assad_09_08_13.webm\nFormat                                   : WebM\nFormat version                           : Version 2\nFile size                                : 152 MiB\nDuration                                 : 56mn 43s\nOverall bit rate mode                    : Variable\nOverall bit rate                         : 375 Kbps\nWriting application                      : Google\nWriting library                          : Google\n\nVideo\nID                                       : 1\nFormat                                   : VP8\nCodec ID                                 : V_VP8\nDuration                                 : 56mn 43s\nBit rate                                 : 223 Kbps\nWidth                                    : 640 pixels\nHeight                                   : 360 pixels\nDisplay aspect ratio                     : 16:9\nFrame rate mode                          : Constant\nFrame rate                               : 25.000 fps\nCompression mode                         : Lossy\nBits/(Pixel*Frame)                       : 0.039\nStream size                              : 90.7 MiB (60%)\nDefault                                  : Yes\nForced                                   : No\n\nAudio\nID                                       : 2\nFormat                                   : Vorbis\nFormat settings, Floor                   : 1\nCodec ID                                 : A_VORBIS\nDuration                                 : 56mn 43s\nBit rate mode                            : Variable\nBit rate                                 : 128 Kbps\nChannel(s)                               : 2 channels\nSampling rate                            : 44.1 KHz\nCompression mode                         : Lossy\nStream size                              : 51.9 MiB (34%)\nDefault                                  : Yes\nForced                                   : No\nWriting application                      : Google\n\n","torrent":{"xt":"urn:btih:8fd13af760e5c73e95e6dc47de489fbc72a8eca8","amp;dn":"Charlie_Rose_Bashar_Al_Assad_09_13","amp;tr":["udp%3A%2F%2Ftracker.openbittorrent.com%3A80","udp%3A%2F%2Fopen.demonii.com%3A1337","udp%3A%2F%2Ftracker.coppersurfer.tk%3A6969","udp%3A%2F%2Fexodus.desync.com%3A6969"],"infoHash":"8fd13af760e5c73e95e6dc47de489fbc72a8eca8","infoHashBuffer":{"type":"Buffer","data":[143,209,58,247,96,229,199,62,149,230,220,71,222,72,159,188,114,168,236,168]},"announce":[],"urlList":[]}}